<?xml version="1.0" encoding="UTF-8"?> <svg xmlns="http://www.w3.org/2000/svg" viewBox="0 0 534.31 150"><defs><style>.cls-1{fill:#1c355e;}</style></defs><title>Asset 1</title><g id="Layer_2" data-name="Layer 2"><g id="Layer_1-2" data-name="Layer 1"><path class="cls-1" d="M1.87,47.31V23.11a2.35,2.35,0,0,1,2.38-2.27,2.35,2.35,0,0,1,2.38,2.27V35l14-13.44a2.42,2.42,0,0,1,3.37,0,2.25,2.25,0,0,1,0,3.23L14.5,33.82l9.6,12A2.14,2.14,0,0,1,23.75,49a2.21,2.21,0,0,1-1.51.54,2.38,2.38,0,0,1-1.77-.82L11.13,37.05l-4.5,4.38v5.88a2.32,2.32,0,0,1-2.38,2.27A2.32,2.32,0,0,1,1.87,47.31Z"></path><path class="cls-1" d="M41.44,47.31V22.9a2.29,2.29,0,0,1,2.38-2.27H58a2.35,2.35,0,0,1,2.38,2.27A2.39,2.39,0,0,1,58,25.22H46.24v7.57H56.32a2.3,2.3,0,1,1,0,4.59H46.24V45H58a2.3,2.3,0,1,1,0,4.59H44c-.09,0-.09,0-.09,0l0,0A2.32,2.32,0,0,1,41.44,47.31Z"></path><path class="cls-1" d="M80.49,47.31a2.36,2.36,0,0,1-4.71,0V23.23a2.19,2.19,0,0,1,1-1.9,2.45,2.45,0,0,1,3.28.5L94,40.32v-17A2.31,2.31,0,0,1,96.32,21a2.35,2.35,0,0,1,2.38,2.24v24a2.35,2.35,0,0,1-2.38,2.27,2.43,2.43,0,0,1-1.78-.82,1.46,1.46,0,0,1-.21-.25L80.49,30.14Z"></path><path class="cls-1" d="M116.77,30c2-.58,3-1.86,2.94-3.72a3,3,0,0,1-2.46-2.78v-.33a2.75,2.75,0,0,1,2.94-2.77c1.9,0,3.11,1.41,3.11,3.64v.42c0,2.81-.78,4.75-2.12,6a6.43,6.43,0,0,1-4.06,1.78c-.91,0-1.34-.49-1.34-1.16A1.2,1.2,0,0,1,116.77,30Z"></path><path class="cls-1" d="M135.37,42.39a2.31,2.31,0,0,1,3.15-.29c1.91,1.48,5.19,3.22,8.26,3.18a9.62,9.62,0,0,0,5.41-1.53,3.68,3.68,0,0,0,1.86-3,2.26,2.26,0,0,0-.39-1.32,4,4,0,0,0-1.3-1.24,17.79,17.79,0,0,0-5.92-2h-.09a24,24,0,0,1-5.58-1.61,9.18,9.18,0,0,1-4-3.23,6.12,6.12,0,0,1-1-3.39,7.57,7.57,0,0,1,3.46-6,13.24,13.24,0,0,1,7.48-2.19c4.15,0,7.22,1.95,9.42,3.31a2.07,2.07,0,0,1,.61,2.94,2.25,2.25,0,0,1-3.07.62c-2.21-1.41-4.33-2.65-7-2.65a8.52,8.52,0,0,0-4.85,1.41,3.26,3.26,0,0,0-1.64,2.6,2,2,0,0,0,.3,1.16,4.32,4.32,0,0,0,1.17,1.08,15.6,15.6,0,0,0,5.41,1.82h.08a26.38,26.38,0,0,1,6,1.73,10,10,0,0,1,4.32,3.44,6.46,6.46,0,0,1,1,3.51,7.91,7.91,0,0,1-3.72,6.41,14,14,0,0,1-8,2.36,19.06,19.06,0,0,1-11.07-4.14A2.12,2.12,0,0,1,135.37,42.39Z"></path><path class="cls-1" d="M219.82,50a1.37,1.37,0,0,1-1.41-1.37V25.88l-9,12a1.38,1.38,0,0,1-1.17.62h-.08a1.37,1.37,0,0,1-1.22-.62l-9-11.92V48.59a1.43,1.43,0,0,1-2.86,0V21.79a1.3,1.3,0,0,1,.52-1.05.49.49,0,0,1,.13-.1v0l0,0a1.48,1.48,0,0,1,.8-.22,1.44,1.44,0,0,1,1.16.56l10.47,13.88L218.61,21a1.38,1.38,0,0,1,1.16-.57,1.52,1.52,0,0,1,.81.22l0,0,0,0A1.85,1.85,0,0,1,221,21l0,0v0a1.6,1.6,0,0,1,.21.71v26.8A1.41,1.41,0,0,1,219.82,50Z"></path><path class="cls-1" d="M258,50a1.49,1.49,0,0,1-1.34-.9h0l-2.59-6.59H240.79l-2.59,6.59h0a1.44,1.44,0,0,1-1.34.9,1.52,1.52,0,0,1-.21,0l-.18,0h-.07l-.07,0a1.48,1.48,0,0,1-.8-.81,1.29,1.29,0,0,1,0-1L246,21.23h0a1.52,1.52,0,0,1,1.37-.84,1.43,1.43,0,0,1,1.39.86l10.5,26.84a1.34,1.34,0,0,1,0,1,1.39,1.39,0,0,1-.77.77l-.06,0h-.07l-.16,0A1.29,1.29,0,0,1,258,50ZM253,39.7l-5.56-14.16L241.86,39.7Z"></path><path class="cls-1" d="M295.72,50a1.4,1.4,0,0,1-1.09-.48h0a.75.75,0,0,1-.22-.22L276.93,26V48.59a1.41,1.41,0,0,1-2.82,0V22.09a1.35,1.35,0,0,1,.54-1.47h0a1.52,1.52,0,0,1,.81-.22,1.39,1.39,0,0,1,1.16.57l17.66,23.42V21.91a1.43,1.43,0,0,1,2.86,0V48.59A1.42,1.42,0,0,1,295.72,50Z"></path><path class="cls-1" d="M315.05,28.86a1,1,0,0,1-1-1,1,1,0,0,1,.54-.86h0a3.92,3.92,0,0,0,1.51-1.23,2.34,2.34,0,0,0,.34-1.35,1.9,1.9,0,0,1-.75-.5,1.78,1.78,0,0,1-.43-1.22v-.87a1.71,1.71,0,0,1,.53-1.23,1.82,1.82,0,0,1,2.53,0,1.72,1.72,0,0,1,.54,1.23v1c0,2.35-.39,3.71-1.29,4.57A5.14,5.14,0,0,1,315.05,28.86Z"></path><path class="cls-1" d="M344.84,50a17.24,17.24,0,0,1-6.52-1.42,23.27,23.27,0,0,1-4.86-2.84h0a1.3,1.3,0,0,1-.17-1.8h0a1.32,1.32,0,0,1,1-.47,1.27,1.27,0,0,1,.84.3,19.46,19.46,0,0,0,4.2,2.45,13.86,13.86,0,0,0,5.39,1.19h.12a11.43,11.43,0,0,0,6.45-1.84h0a4.92,4.92,0,0,0,2.43-4,3.65,3.65,0,0,0-.56-2,5.62,5.62,0,0,0-1.73-1.65,20,20,0,0,0-6.84-2.3h-.12a19.88,19.88,0,0,1-7.27-2.5,6.29,6.29,0,0,1-3.28-5.36,6.15,6.15,0,0,1,.92-3.22,8.2,8.2,0,0,1,2.39-2.5,11.77,11.77,0,0,1,3.41-1.6,14.58,14.58,0,0,1,4.11-.58A13.72,13.72,0,0,1,350.17,21a28.54,28.54,0,0,1,4.12,2.26h0a1.27,1.27,0,0,1,.37,1.79,1.29,1.29,0,0,1-1.09.58,1.3,1.3,0,0,1-.72-.22,27.18,27.18,0,0,0-3.74-2.06,11.07,11.07,0,0,0-4.37-.94,10.87,10.87,0,0,0-6,1.67,4.62,4.62,0,0,0-2.21,3.66A3.79,3.79,0,0,0,338.65,31,17.88,17.88,0,0,0,345,33.08h.12a21.66,21.66,0,0,1,7.83,2.7,7.92,7.92,0,0,1,2.53,2.45,6.1,6.1,0,0,1,1,3.33,7.58,7.58,0,0,1-3.57,6.1,14.21,14.21,0,0,1-8,2.34Z"></path><path class="cls-1" d="M404,50a17.15,17.15,0,0,1-6.51-1.42,23.33,23.33,0,0,1-4.87-2.84h0a1.29,1.29,0,0,1-.18-1.8h0a1.35,1.35,0,0,1,1-.47,1.27,1.27,0,0,1,.84.3,19.71,19.71,0,0,0,4.2,2.45,13.9,13.9,0,0,0,5.4,1.19H404a11.37,11.37,0,0,0,6.44-1.84h0a4.93,4.93,0,0,0,2.44-4,3.73,3.73,0,0,0-.56-2,5.67,5.67,0,0,0-1.74-1.65,19.89,19.89,0,0,0-6.83-2.3h-.12a19.81,19.81,0,0,1-7.27-2.5A6.3,6.3,0,0,1,393,27.74a6.15,6.15,0,0,1,.92-3.22,8.24,8.24,0,0,1,2.4-2.5,11.71,11.71,0,0,1,3.4-1.6,14.65,14.65,0,0,1,4.12-.58A13.67,13.67,0,0,1,409.28,21a29.23,29.23,0,0,1,4.13,2.26h0a1.29,1.29,0,0,1-.72,2.37,1.33,1.33,0,0,1-.73-.22,27.18,27.18,0,0,0-3.74-2.06,11.06,11.06,0,0,0-4.36-.94,10.82,10.82,0,0,0-6,1.67,4.6,4.6,0,0,0-2.22,3.66A3.79,3.79,0,0,0,397.76,31a17.94,17.94,0,0,0,6.32,2.13h.11a21.65,21.65,0,0,1,7.84,2.7,7.78,7.78,0,0,1,2.52,2.45,6.11,6.11,0,0,1,1,3.33,7.6,7.6,0,0,1-3.58,6.1A14.2,14.2,0,0,1,404,50Z"></path><path class="cls-1" d="M450.27,50a1.41,1.41,0,0,1-1.41-1.37V36.47H434V48.59a1.44,1.44,0,0,1-2.87,0v-27a1.44,1.44,0,0,1,2.87,0V33.74h14.82V21.62a1.43,1.43,0,0,1,2.86,0v27A1.42,1.42,0,0,1,450.27,50Z"></path><path class="cls-1" d="M482.83,50a14.81,14.81,0,0,1-10.62-4.42,15.14,15.14,0,0,1-4.37-10.64h0a15.18,15.18,0,0,1,4.37-10.65,14.84,14.84,0,0,1,10.62-4.41A14.64,14.64,0,0,1,488.65,21a14.45,14.45,0,0,1,4.71,3.23A15.2,15.2,0,0,1,496.52,29a15.36,15.36,0,0,1,1.17,5.86h0a15.36,15.36,0,0,1-1.17,5.86,15.2,15.2,0,0,1-3.16,4.78A14.68,14.68,0,0,1,482.83,50Zm0-27.3a12.21,12.21,0,0,0-4.71.93,12.06,12.06,0,0,0-3.85,2.58,12.47,12.47,0,0,0,0,17.45,12,12,0,0,0,8.56,3.56,11.49,11.49,0,0,0,4.58-1,11.89,11.89,0,0,0,3.8-2.61,12.51,12.51,0,0,0,2.6-3.9,12.8,12.8,0,0,0,1-4.82,12.41,12.41,0,0,0-3.57-8.73,11.92,11.92,0,0,0-3.79-2.58A11.66,11.66,0,0,0,482.83,22.66Z"></path><path class="cls-1" d="M516,50a1.41,1.41,0,0,1-1.41-1.37v-27A1.41,1.41,0,0,1,516,20.26h8.56a8.82,8.82,0,0,1,9,8.64,8.27,8.27,0,0,1-.71,3.36A8.62,8.62,0,0,1,530.91,35a9,9,0,0,1-2.86,1.84,9.35,9.35,0,0,1-3.49.68l-7.11.07v11A1.42,1.42,0,0,1,516,50Zm8.56-15.14a6.1,6.1,0,0,0,6.16-5.92,5.7,5.7,0,0,0-1.8-4.14A6.27,6.27,0,0,0,524.56,23h-7.11V34.82Z"></path><rect class="cls-1" x="265.75" y="-265.75" width="2.8" height="534.31" transform="translate(265.75 268.56) rotate(-90)"></rect></g></g></svg> 